<mxfile host="Electron" agent="Mozilla/5.0 (Macintosh; Intel Mac OS X 10_15_7) AppleWebKit/537.36 (KHTML, like Gecko) draw.io/24.7.17 Chrome/128.0.6613.36 Electron/32.0.1 Safari/537.36" version="24.7.17">
  <diagram name="Page-1" id="zINytQw9px49Lbly9CFw">
    <mxGraphModel dx="2074" dy="1214" grid="1" gridSize="10" guides="1" tooltips="1" connect="1" arrows="1" fold="1" page="1" pageScale="1" pageWidth="850" pageHeight="1100" math="0" shadow="0">
      <root>
        <mxCell id="0" />
        <mxCell id="1" parent="0" />
        <mxCell id="bET-CTDD6BDIeLGVOmSk-1" value="default VPC" style="points=[[0,0],[0.25,0],[0.5,0],[0.75,0],[1,0],[1,0.25],[1,0.5],[1,0.75],[1,1],[0.75,1],[0.5,1],[0.25,1],[0,1],[0,0.75],[0,0.5],[0,0.25]];outlineConnect=0;gradientColor=none;html=1;whiteSpace=wrap;fontSize=12;fontStyle=0;container=1;pointerEvents=0;collapsible=0;recursiveResize=0;shape=mxgraph.aws4.group;grIcon=mxgraph.aws4.group_vpc2;strokeColor=#8C4FFF;fillColor=none;verticalAlign=top;align=left;spacingLeft=30;fontColor=#AAB7B8;dashed=0;" vertex="1" parent="1">
          <mxGeometry x="170" y="290" width="490" height="230" as="geometry" />
        </mxCell>
        <mxCell id="bET-CTDD6BDIeLGVOmSk-7" value="default Public subnet" style="points=[[0,0],[0.25,0],[0.5,0],[0.75,0],[1,0],[1,0.25],[1,0.5],[1,0.75],[1,1],[0.75,1],[0.5,1],[0.25,1],[0,1],[0,0.75],[0,0.5],[0,0.25]];outlineConnect=0;gradientColor=none;html=1;whiteSpace=wrap;fontSize=12;fontStyle=0;container=1;pointerEvents=0;collapsible=0;recursiveResize=0;shape=mxgraph.aws4.group;grIcon=mxgraph.aws4.group_security_group;grStroke=0;strokeColor=#7AA116;fillColor=#F2F6E8;verticalAlign=top;align=left;spacingLeft=30;fontColor=#248814;dashed=0;" vertex="1" parent="bET-CTDD6BDIeLGVOmSk-1">
          <mxGeometry x="40" y="40" width="410" height="170" as="geometry" />
        </mxCell>
        <mxCell id="bET-CTDD6BDIeLGVOmSk-13" value="" style="group" vertex="1" connectable="0" parent="bET-CTDD6BDIeLGVOmSk-7">
          <mxGeometry x="30" y="50" width="120" height="103" as="geometry" />
        </mxCell>
        <mxCell id="bET-CTDD6BDIeLGVOmSk-11" value="" style="group" vertex="1" connectable="0" parent="bET-CTDD6BDIeLGVOmSk-13">
          <mxGeometry x="30" y="23" width="60" height="80" as="geometry" />
        </mxCell>
        <mxCell id="bET-CTDD6BDIeLGVOmSk-9" value="" style="sketch=0;outlineConnect=0;fontColor=#232F3E;gradientColor=none;fillColor=#8C4FFF;strokeColor=none;dashed=0;verticalLabelPosition=bottom;verticalAlign=top;align=center;html=1;fontSize=12;fontStyle=0;aspect=fixed;pointerEvents=1;shape=mxgraph.aws4.application_load_balancer;" vertex="1" parent="bET-CTDD6BDIeLGVOmSk-11">
          <mxGeometry x="5" width="50" height="50" as="geometry" />
        </mxCell>
        <mxCell id="bET-CTDD6BDIeLGVOmSk-10" value="ALB" style="text;html=1;align=center;verticalAlign=middle;whiteSpace=wrap;rounded=0;" vertex="1" parent="bET-CTDD6BDIeLGVOmSk-11">
          <mxGeometry y="50" width="60" height="30" as="geometry" />
        </mxCell>
        <mxCell id="bET-CTDD6BDIeLGVOmSk-12" value="Security group" style="fillColor=none;strokeColor=#DD3522;verticalAlign=top;fontStyle=0;fontColor=#DD3522;whiteSpace=wrap;html=1;" vertex="1" parent="bET-CTDD6BDIeLGVOmSk-13">
          <mxGeometry width="120" height="100" as="geometry" />
        </mxCell>
        <mxCell id="bET-CTDD6BDIeLGVOmSk-6" value="" style="group" vertex="1" connectable="0" parent="bET-CTDD6BDIeLGVOmSk-7">
          <mxGeometry x="290" y="73" width="97.5" height="80" as="geometry" />
        </mxCell>
        <mxCell id="bET-CTDD6BDIeLGVOmSk-3" value="" style="sketch=0;points=[[0,0,0],[0.25,0,0],[0.5,0,0],[0.75,0,0],[1,0,0],[0,1,0],[0.25,1,0],[0.5,1,0],[0.75,1,0],[1,1,0],[0,0.25,0],[0,0.5,0],[0,0.75,0],[1,0.25,0],[1,0.5,0],[1,0.75,0]];outlineConnect=0;fontColor=#232F3E;fillColor=#ED7100;strokeColor=#ffffff;dashed=0;verticalLabelPosition=bottom;verticalAlign=top;align=center;html=1;fontSize=12;fontStyle=0;aspect=fixed;shape=mxgraph.aws4.resourceIcon;resIcon=mxgraph.aws4.ec2;" vertex="1" parent="bET-CTDD6BDIeLGVOmSk-6">
          <mxGeometry x="12.5" width="50" height="50" as="geometry" />
        </mxCell>
        <mxCell id="bET-CTDD6BDIeLGVOmSk-5" value="EC2 instance" style="text;html=1;align=center;verticalAlign=middle;whiteSpace=wrap;rounded=0;" vertex="1" parent="bET-CTDD6BDIeLGVOmSk-6">
          <mxGeometry y="50" width="75" height="30" as="geometry" />
        </mxCell>
        <mxCell id="bET-CTDD6BDIeLGVOmSk-4" value="Security group" style="fillColor=none;strokeColor=#DD3522;verticalAlign=top;fontStyle=0;fontColor=#DD3522;whiteSpace=wrap;html=1;" vertex="1" parent="bET-CTDD6BDIeLGVOmSk-6">
          <mxGeometry x="-22.5" y="-25" width="120" height="100" as="geometry" />
        </mxCell>
      </root>
    </mxGraphModel>
  </diagram>
</mxfile>
